<svg xmlns="http://www.w3.org/2000/svg" viewBox="0 0 192 192" width="192" height="192">
  <defs>
    <clipPath id="c">
      <rect x="0" y="0" width="192" height="192" rx="34"/>
    </clipPath>
  </defs>
  <rect x="0" y="0" width="192" height="192" rx="34" fill="#1a4d52"/>
  <g clip-path="url(#c)">
    <rect x="24" y="52" width="144" height="26" rx="7" fill="#eaf6f8" opacity="0.92"/>
    <circle cx="40" cy="65" r="7" fill="#3a9aa5"/>
    <rect x="54" y="59" width="80" height="6" rx="3" fill="#25757e" opacity="0.65"/>
    <rect x="54" y="69" width="52" height="5" rx="2.5" fill="#25757e" opacity="0.38"/>
    <rect x="24" y="84" width="144" height="26" rx="7" fill="#eaf6f8" opacity="0.92"/>
    <circle cx="40" cy="97" r="7" fill="#3a9aa5"/>
    <rect x="54" y="91" width="96" height="6" rx="3" fill="#25757e" opacity="0.65"/>
    <rect x="54" y="101" width="64" height="5" rx="2.5" fill="#25757e" opacity="0.38"/>
    <rect x="24" y="116" width="144" height="26" rx="7" fill="#eaf6f8" opacity="0.92"/>
    <circle cx="40" cy="129" r="7" fill="#3a9aa5"/>
    <rect x="54" y="123" width="64" height="6" rx="3" fill="#25757e" opacity="0.65"/>
    <rect x="126" y="121" width="34" height="14" rx="7" fill="#d0eef2"/>
    <rect x="131" y="126" width="24" height="4" rx="2" fill="#1a4d52" opacity="0.5"/>
    <circle cx="152" cy="156" r="28" fill="#3a9aa5"/>
    <rect x="143" y="149.5" width="18" height="13" rx="6.5" fill="#eaf6f8" opacity="0" />
    <rect x="144" y="150" width="16" height="6" rx="3" fill="#eaf6f8"/>
    <rect x="149" y="144" width="6" height="18" rx="3" fill="#eaf6f8"/>
  </g>
  <rect x="0" y="0" width="192" height="192" rx="34" fill="none" stroke="#0b2527" stroke-width="3" opacity="0.25"/>
</svg>
