<svg xmlns="http://www.w3.org/2000/svg" viewBox="0 0 512 512" width="512" height="512">
  <defs>
    <clipPath id="c">
      <rect x="0" y="0" width="512" height="512" rx="90"/>
    </clipPath>
  </defs>
  <rect x="0" y="0" width="512" height="512" rx="90" fill="#1a4d52"/>
  <g clip-path="url(#c)">
    <rect x="64" y="138" width="384" height="70" rx="18" fill="#eaf6f8" opacity="0.92"/>
    <circle cx="106" cy="173" r="18" fill="#3a9aa5"/>
    <rect x="142" y="157" width="214" height="16" rx="8" fill="#25757e" opacity="0.65"/>
    <rect x="142" y="179" width="138" height="13" rx="6.5" fill="#25757e" opacity="0.38"/>
    <rect x="64" y="222" width="384" height="70" rx="18" fill="#eaf6f8" opacity="0.92"/>
    <circle cx="106" cy="257" r="18" fill="#3a9aa5"/>
    <rect x="142" y="241" width="256" height="16" rx="8" fill="#25757e" opacity="0.65"/>
    <rect x="142" y="263" width="170" height="13" rx="6.5" fill="#25757e" opacity="0.38"/>
    <rect x="64" y="306" width="384" height="70" rx="18" fill="#eaf6f8" opacity="0.92"/>
    <circle cx="106" cy="341" r="18" fill="#3a9aa5"/>
    <rect x="142" y="325" width="170" height="16" rx="8" fill="#25757e" opacity="0.65"/>
    <rect x="336" y="322" width="90" height="36" rx="18" fill="#d0eef2"/>
    <rect x="350" y="334" width="62" height="11" rx="5.5" fill="#1a4d52" opacity="0.5"/>
    <circle cx="406" cy="416" r="74" fill="#3a9aa5"/>
    <rect x="383" y="400" width="46" height="16" rx="8" fill="#eaf6f8"/>
    <rect x="398" y="385" width="16" height="46" rx="8" fill="#eaf6f8"/>
  </g>
  <rect x="0" y="0" width="512" height="512" rx="90" fill="none" stroke="#0b2527" stroke-width="6" opacity="0.25"/>
</svg>
